<?xml version="1.0" encoding="utf-8"?>
<!-- Generator: Adobe Illustrator 12.0.1, SVG Export Plug-In  -->
<!DOCTYPE svg PUBLIC "-//W3C//DTD SVG 1.1//EN" "http://www.w3.org/Graphics/SVG/1.1/DTD/svg11.dtd" [
	<!ENTITY ns_flows "http://ns.adobe.com/Flows/1.0/">
	<!ENTITY ns_svg "http://www.w3.org/2000/svg">
	<!ENTITY ns_xlink "http://www.w3.org/1999/xlink">
]>
<svg  version="1.1" xmlns="&ns_svg;" xmlns:xlink="&ns_xlink;" xmlns:a="http://ns.adobe.com/AdobeSVGViewerExtensions/3.0/"
	 width="55" height="55" viewBox="-0.965 -0.693 55 55" enable-background="new -0.965 -0.693 55 55" xml:space="preserve">
<defs>
</defs>
<path fill="#EC222C" d="M53.42,26.705C53.412,11.957,41.455,0.006,26.707,0C11.959-0.002,0.008,11.957,0,26.705
	C0.004,41.461,11.951,53.4,26.703,53.416C41.455,53.412,53.416,41.461,53.42,26.705"/>
<path fill="#FFFFFF" d="M49.664,26.705c0-12.68-10.285-22.953-22.969-22.969C14.012,3.74,3.723,14.025,3.727,26.693
	C3.715,39.393,14.012,49.668,26.695,49.678C39.375,49.678,49.664,39.393,49.664,26.705"/>
<path fill="#EC222C" d="M14.336,38.174l6.031-0.006l1.604-4.852h9.449l1.588,4.852l5.568,0.006l-9.041-25.586h-6.119L14.336,38.174
	 M23.344,29.102l2.648-8.156c0.355-1.092,0.646-2.412,0.646-3.209l0.084-0.008c-0.004,0.869,0.312,2.199,0.648,3.229l2.625,8.135
	L23.344,29.102z"/>
</svg>
